# xmcd CD database file
#
# Track frame offsets:
#	150
#	18618
#	36289
#	42217
#	51463
#	59218
#	62599
#	70770
#	81865
#	94376
#	101519
#	114005
#	123071
#	130042
#	137216
#	157386
#	180704
#	196832
#	210535
#	231095
#	242587
#
# Disc length: 3846 seconds
#
# Revision: 0
# Processed by: cddbd v1.5.2PL0 Copyright (c) Steve Scherf et al.
# Submitted via: CDex 1.51
#
DISCID=2d0f0415
DTITLE=Bohemia Saxaphone Quartet - Saxcriptions
DYEAR=2004
DGENRE=Jazz
TTITLE0=Suite from West Side Story - Prologue
TTITLE1=Suite from West Side Story - Somewhere
TTITLE2=Suite from West Side Story - Scherzo
TTITLE3=Suite from West Side Story - Mambo
TTITLE4=Suite from West Side Story - Cha-Cha
TTITLE5=Suite from West Side Story - Cool
TTITLE6=Suite from West Side Story - Rumble
TTITLE7=Suite from West Side Story - Finale
TTITLE8=Film en Minature - Tango
TTITLE9=Film en Minature - Scherzo
TTITLE10=Film en Minature - Ukolebavka - Berceuse
TTITLE11=Film en Minature - Valcik - Valse
TTITLE12=Film en Minature - Chanson
TTITLE13=Film en Minature - Carillon
TTITLE14=Dvorak Slavonic Dances - No.8
TTITLE15=Dvorak Slavonic Dances - No.10
TTITLE16=Dvorak Slavonic Dances - No.15
TTITLE17=Scaramouche - Vif
TTITLE18=Scaramouche - Modere
TTITLE19=Scaramouche - Braziliera
TTITLE20=Rhapsody in Blue
EXTD=YEAR: 2004
EXTT0=
EXTT1=
EXTT2=
EXTT3=
EXTT4=
EXTT5=
EXTT6=
EXTT7=
EXTT8=
EXTT9=
EXTT10=
EXTT11=
EXTT12=
EXTT13=
EXTT14=
EXTT15=
EXTT16=
EXTT17=
EXTT18=
EXTT19=
EXTT20=
PLAYORDER=
